<?xml version="1.0" standalone="no"?>
<!DOCTYPE svg PUBLIC "-//W3C//DTD SVG 20010904//EN"
 "http://www.w3.org/TR/2001/REC-SVG-20010904/DTD/svg10.dtd">
<svg version="1.0" xmlns="http://www.w3.org/2000/svg"
 width="512.000000pt" height="512.000000pt" viewBox="0 0 512.000000 512.000000"
 preserveAspectRatio="xMidYMid meet">

<g transform="translate(0.000000,512.000000) scale(0.100000,-0.100000)" stroke="none">
<path d="M490 5104 c-232 -49 -426 -246 -475 -479 -22 -105 -22 -4025 0 -4130
38 -180 163 -344 326 -424 149 -73 101 -71 1263 -71 l1038 0 39 22 c25 14 46
37 59 63 20 41 20 57 18 998 -3 954 -3 956 -24 984 -12 15 -36 37 -55 48 -31
19 -55 20 -321 23 l-288 3 0 215 0 214 294 0 c424 0 396 -33 396 465 0 395 6
441 67 565 50 103 160 213 263 263 120 59 176 67 503 67 l287 0 0 -215 0 -215
-275 0 c-300 0 -317 -3 -367 -56 -15 -16 -32 -42 -37 -57 -7 -18 -11 -151 -11
-365 0 -376 1 -384 69 -429 33 -23 39 -23 327 -23 l294 0 0 -214 0 -215 -287
-3 c-267 -3 -291 -4 -322 -23 -19 -11 -43 -33 -55 -48 -21 -28 -21 -30 -24
-989 l-2 -960 21 -38 c12 -21 38 -47 59 -59 37 -21 45 -21 661 -21 702 0 705
1 848 71 163 80 288 244 326 424 22 105 22 4025 0 4130 -49 236 -244 431 -480
480 -102 21 -4035 21 -4135 -1z m4135 -317 c78 -36 127 -85 162 -161 l28 -61
0 -2005 0 -2005 -28 -60 c-36 -78 -85 -127 -161 -162 l-61 -28 -537 -3 -538
-3 0 766 0 765 283 0 c273 0 284 1 327 22 33 17 51 35 68 68 23 45 23 46 20
446 l-3 401 -29 37 c-48 64 -61 66 -381 66 l-285 0 0 165 0 165 291 0 c326 0
340 2 381 69 23 36 23 37 23 448 0 402 0 412 -21 440 -11 15 -36 38 -55 51
l-34 23 -435 -4 c-400 -3 -441 -5 -505 -24 -324 -93 -556 -325 -651 -651 -14
-46 -18 -118 -21 -369 l-5 -313 -284 0 c-319 0 -332 -2 -380 -66 l-29 -37 -3
-401 c-3 -400 -3 -401 20 -446 17 -33 35 -51 68 -67 43 -22 54 -23 327 -23
l283 0 0 -765 0 -766 -952 3 -953 3 -61 28 c-76 35 -125 84 -161 162 l-28 60
0 2005 0 2005 28 60 c15 33 42 75 60 93 38 40 113 80 171 92 22 4 932 7 2021
6 l1980 -1 60 -28z"/>
</g>
</svg>
