<?xml version="1.0" standalone="no"?>
<!DOCTYPE svg PUBLIC "-//W3C//DTD SVG 20010904//EN"
 "http://www.w3.org/TR/2001/REC-SVG-20010904/DTD/svg10.dtd">
<svg version="1.0" xmlns="http://www.w3.org/2000/svg"
 width="512.000000pt" height="512.000000pt" viewBox="0 0 512.000000 512.000000"
 preserveAspectRatio="xMidYMid meet">

<g transform="translate(0.000000,512.000000) scale(0.100000,-0.100000)"
fill="#000000" stroke="none">
<path d="M1680 5109 c-381 -11 -586 -44 -803 -129 -301 -118 -559 -357 -696
-645 -100 -208 -150 -440 -171 -795 -13 -217 -13 -1708 0 -1936 28 -494 113
-781 305 -1035 239 -318 568 -485 1079 -546 275 -32 2066 -27 2371 7 238 27
420 77 589 161 131 65 211 123 324 233 223 216 357 509 407 886 46 345 46
2155 0 2502 -88 667 -444 1086 -1045 1232 -171 41 -316 56 -645 66 -352 11
-1333 10 -1715 -1z m1845 -460 c706 -47 1014 -289 1099 -862 28 -183 39 -668
33 -1447 -5 -724 -11 -856 -43 -1050 -75 -448 -336 -709 -784 -784 -185 -31
-322 -37 -955 -42 -702 -7 -1321 6 -1502 31 -294 40 -466 113 -616 261 -168
166 -247 351 -289 684 -10 81 -13 334 -13 1105 0 902 2 1014 18 1143 76 604
307 858 862 948 176 28 1818 38 2190 13z"/>
<path d="M3827 4216 c-214 -77 -276 -345 -116 -505 64 -63 120 -86 214 -86 67
0 89 4 137 28 101 50 158 137 166 254 6 101 -16 162 -88 233 -37 37 -71 61
-105 73 -59 20 -155 22 -208 3z"/>
<path d="M2327 3854 c-248 -45 -482 -165 -669 -343 -189 -179 -310 -389 -375
-648 -25 -97 -27 -126 -28 -293 0 -142 4 -205 18 -270 56 -260 172 -474 357
-661 148 -149 312 -253 505 -320 151 -52 233 -64 435 -64 167 1 196 3 293 28
259 65 469 186 648 375 239 252 359 554 359 907 0 349 -124 654 -367 906 -198
204 -445 336 -717 384 -110 19 -351 18 -459 -1z m411 -460 c324 -66 589 -333
657 -660 19 -91 19 -258 1 -344 -72 -339 -333 -596 -675 -665 -101 -21 -281
-16 -376 10 -90 24 -252 107 -323 165 -128 104 -236 270 -282 430 -31 107 -38
281 -16 389 69 342 324 602 661 676 84 19 260 18 353 -1z"/>
</g>
</svg>
