<?xml version="1.0" standalone="no"?>
<!DOCTYPE svg PUBLIC "-//W3C//DTD SVG 20010904//EN"
 "http://www.w3.org/TR/2001/REC-SVG-20010904/DTD/svg10.dtd">
<svg version="1.0" xmlns="http://www.w3.org/2000/svg"
 width="512.000000pt" height="512.000000pt" viewBox="0 0 512.000000 512.000000"
 preserveAspectRatio="xMidYMid meet">

<g transform="translate(0.000000,512.000000) scale(0.100000,-0.100000)"
fill="#000000" stroke="none">
<path d="M4710 4756 c-41 -18 -169 -80 -285 -138 -115 -58 -238 -118 -272
-133 l-63 -28 -69 31 c-159 71 -357 102 -532 83 -389 -42 -704 -261 -892 -621
-95 -181 -143 -363 -154 -587 l-6 -134 -46 6 c-717 95 -1314 502 -1678 1145
-48 83 -82 112 -142 118 -64 6 -103 -10 -141 -58 -43 -54 -107 -177 -135 -260
-28 -82 -55 -249 -55 -336 1 -126 42 -317 94 -431 15 -31 24 -58 22 -60 -2 -3
-43 7 -89 21 -101 31 -140 32 -187 7 -37 -19 -80 -88 -80 -127 0 -13 9 -63 20
-111 87 -370 302 -657 637 -848 l75 -43 -53 -15 c-30 -9 -74 -21 -98 -27 -60
-16 -83 -33 -110 -81 -30 -53 -25 -114 14 -164 39 -53 176 -167 285 -239 165
-110 382 -208 598 -270 62 -18 113 -36 113 -40 0 -13 -111 -86 -199 -130 -231
-117 -444 -156 -836 -156 -182 0 -215 -3 -251 -19 -76 -34 -107 -126 -69 -207
18 -38 105 -110 201 -168 262 -157 803 -315 1268 -370 390 -47 823 -39 1160
20 450 79 848 251 1151 498 99 80 281 264 371 376 331 410 519 830 600 1342
25 159 25 559 -1 746 l-18 132 123 196 c67 108 126 211 132 229 15 49 0 104
-37 141 -45 45 -92 55 -201 44 -49 -5 -109 -10 -133 -10 l-42 0 125 250 c68
137 127 266 130 287 9 57 -27 122 -85 151 -58 29 -71 28 -160 -12z m-250 -471
c0 -2 -38 -81 -85 -176 -91 -184 -99 -216 -67 -279 9 -19 32 -45 51 -57 37
-25 97 -29 239 -14 39 4 72 5 72 2 0 -3 -26 -47 -57 -100 -55 -90 -58 -98 -58
-160 0 -36 9 -133 20 -216 24 -187 24 -450 1 -624 -68 -510 -296 -968 -683
-1372 -222 -231 -475 -392 -784 -498 -598 -204 -1428 -200 -2139 13 -63 19
-108 36 -100 39 8 3 49 11 90 17 197 31 434 123 602 232 155 102 375 301 398
363 27 70 -1 149 -67 187 -17 11 -83 28 -147 39 -218 37 -433 103 -611 188
-94 45 -215 116 -215 126 0 3 29 18 65 34 109 50 235 131 256 165 25 41 25
121 0 159 -27 42 -51 55 -169 93 -223 72 -408 186 -536 331 -63 72 -156 214
-156 238 0 6 54 10 148 10 93 0 160 5 183 13 74 26 119 107 100 180 -6 22 -37
71 -72 113 -67 82 -139 220 -166 319 -21 76 -26 341 -7 360 8 8 29 -13 77 -78
287 -387 706 -700 1161 -867 220 -81 532 -142 751 -147 100 -3 113 -1 146 20
53 32 73 80 65 156 -25 254 -17 398 31 551 121 383 430 625 799 625 131 0 229
-25 362 -91 86 -44 108 -51 142 -46 21 3 108 39 192 80 150 74 168 82 168 72z"/>
</g>
</svg>
