<?xml version="1.0" standalone="no"?>
<!DOCTYPE svg PUBLIC "-//W3C//DTD SVG 20010904//EN"
 "http://www.w3.org/TR/2001/REC-SVG-20010904/DTD/svg10.dtd">
<svg version="1.0" xmlns="http://www.w3.org/2000/svg"
 width="512.000000pt" height="512.000000pt" viewBox="0 0 512.000000 512.000000"
 preserveAspectRatio="xMidYMid meet">

<g transform="translate(0.000000,512.000000) scale(0.100000,-0.100000)"
fill="#000000" stroke="none">
<path d="M2115 4394 c-858 -28 -1241 -56 -1440 -105 -154 -37 -279 -112 -391
-232 -118 -127 -171 -236 -210 -426 -99 -488 -99 -1675 0 -2164 39 -189 94
-301 210 -424 116 -123 257 -203 425 -238 346 -73 1536 -121 2366 -96 812 24
1226 57 1410 112 246 73 441 261 525 505 128 371 150 1724 38 2294 -40 204
-115 349 -245 471 -114 107 -239 172 -392 204 -168 35 -532 66 -986 85 -254
11 -1128 20 -1310 14z m980 -404 c791 -24 1198 -59 1323 -116 101 -45 174
-121 208 -216 27 -74 53 -229 71 -419 22 -235 25 -1056 5 -1304 -24 -288 -53
-459 -93 -537 -50 -99 -152 -175 -270 -202 -280 -65 -1478 -110 -2274 -87
-644 19 -1091 49 -1268 87 -183 38 -292 152 -331 349 -88 440 -88 1570 0 2010
21 107 57 179 118 241 96 95 184 120 508 148 538 46 1358 65 2003 46z"/>
<path d="M2050 2549 l0 -811 23 14 c12 8 325 189 695 403 370 214 671 393 670
397 -2 4 -295 176 -653 383 -357 207 -669 387 -692 401 l-43 25 0 -812z"/>
</g>
</svg>
